<?xml version="1.0" encoding="utf-8"?>
<!DOCTYPE svg PUBLIC "-//W3C//DTD SVG 1.1//EN" "http://www.w3.org/Graphics/SVG/1.1/DTD/svg11.dtd">
<svg version="1.1" id="Layer_1" xmlns="http://www.w3.org/2000/svg" xmlns:xlink="http://www.w3.org/1999/xlink" x="0px" y="0px"
	 width="55px" height="55px" viewBox="0 0 55 55" style="enable-background:new 0 0 55 55;" xml:space="preserve">
<path d="M28,26h14.815c-0.164-2.361-0.839-4.562-2.027-6.602c-1.38-2.363-3.251-4.235-5.615-5.615
	c-2.364-1.379-4.945-2.069-7.744-2.069c-2.8,0-5.381,0.69-7.744,2.069c-1.01,0.59-1.911,1.288-2.741,2.057L27.104,26H28z"/>
<path d="M28,42.554c2.578-0.089,4.971-0.767,7.173-2.052c2.364-1.379,4.235-3.251,5.615-5.614c1.237-2.12,1.915-4.417,2.043-6.888
	H28V42.554z"/>
<path d="M15.568,17.293c-0.544,0.657-1.057,1.347-1.499,2.105C12.689,21.763,12,24.344,12,27.143c0,2.8,0.689,5.381,2.069,7.745
	c1.379,2.363,3.251,4.235,5.615,5.614c1.955,1.142,4.062,1.803,6.315,2V27.725L15.568,17.293z"/>
</svg>
